<svg xmlns="http://www.w3.org/2000/svg" width="17" height="20" viewBox="0 0 17 20">
  <path id="Tracé_430" data-name="Tracé 430" d="M8.514,0A5.387,5.387,0,0,1,13.6,3.567a.748.748,0,0,1-.472.955.766.766,0,0,1-.97-.464A3.862,3.862,0,0,0,8.51,1.5H8.493A3.838,3.838,0,0,0,4.627,5.284h0V6.627h7.756A4.584,4.584,0,0,1,17,11.169h0v4.289A4.584,4.584,0,0,1,12.383,20H8.943a.75.75,0,1,1,0-1.5h3.411a3.071,3.071,0,0,0,3.092-3.042.659.659,0,0,1,.029-.144h0V11.169a3.07,3.07,0,0,0-3.092-3.042H4.617a3.071,3.071,0,0,0-3.092,3.042h0v4.145a.659.659,0,0,1,.029.144A3.071,3.071,0,0,0,4.647,18.5a.75.75,0,1,1,0,1.5l-.02,0-.01,0A4.584,4.584,0,0,1,0,15.458H0V11.169A4.541,4.541,0,0,1,3.1,6.9h0V5.3A5.357,5.357,0,0,1,8.489,0h0ZM8.5,11.453a.757.757,0,0,1,.762.75h0v2.221a.762.762,0,0,1-1.525,0h0V12.2A.757.757,0,0,1,8.5,11.453Z" transform="translate(0)" fill="#fff"/>
</svg>
